<svg width="116" height="165" viewBox="0 0 116 165" fill="none" xmlns="http://www.w3.org/2000/svg">
<circle cx="108.54" cy="33.04" r="3.04" fill="#FFC621" stroke="#FFC621"/>
<path d="M90.3616 74.4997C89.2203 72.7666 86.922 72.3079 85.2396 73.4762L77.5826 78.7714L77.5604 62.2893L80.2205 64.8644C80.7862 65.4119 81.5237 65.7131 82.2981 65.7131C82.2995 65.7131 82.3012 65.7131 82.3027 65.7131C83.1387 65.7119 83.9459 65.3499 84.5173 64.7196C85.0724 64.1072 85.3636 63.3082 85.3371 62.4695C85.3107 61.6308 84.9696 60.853 84.377 60.2794L79.3339 55.3976C78.9886 55.0634 78.4466 55.0817 78.1233 55.4385C77.8 55.7952 77.8177 56.3551 78.1628 56.6894L83.206 61.5711C83.4647 61.8215 83.6136 62.1611 83.6252 62.5272C83.6366 62.8932 83.5096 63.2421 83.2671 63.5094C83.014 63.7886 82.6707 63.9426 82.3001 63.9431C82.2994 63.9431 82.2988 63.9431 82.2981 63.9431C81.9603 63.9431 81.6384 63.8116 81.3914 63.5726C81.3913 63.5724 81.3913 63.5724 81.3913 63.5724L61.3661 44.1879C61.0361 43.8685 60.5226 43.869 60.1934 44.1896L40.2202 63.6321C39.9623 63.8833 39.625 64.0148 39.2706 64.0046C38.9162 63.9937 38.5873 63.8408 38.3443 63.574C38.1012 63.3075 37.9731 62.959 37.9838 62.5929C37.9943 62.2267 38.1423 61.8868 38.4003 61.6357L59.8663 40.74C60.3752 40.2446 61.1734 40.2434 61.6836 40.7374L74.2422 52.8943C74.5873 53.2284 75.1293 53.2102 75.4527 52.8535C75.7761 52.4967 75.7584 51.9368 75.4132 51.6026L62.8547 39.4457C61.686 38.3142 59.8575 38.3168 58.6919 39.4517L51.8201 46.1409L51.8182 44.9477C51.8178 44.5716 51.6755 44.2183 51.4178 43.9528C51.1606 43.6878 50.8191 43.5418 50.4558 43.5418C50.4551 43.5418 50.4545 43.5418 50.4538 43.5418L45.5382 43.549C45.1742 43.5495 44.8323 43.6965 44.5754 43.9628C44.3185 44.229 44.1771 44.5828 44.1777 44.959L44.1913 53.5672L37.2258 60.3476C36.6347 60.9229 36.2959 61.7017 36.2717 62.5404C36.2474 63.3791 36.5407 64.1773 37.0975 64.7879C37.6541 65.3987 38.4078 65.7489 39.2195 65.7739C39.2506 65.7749 39.2816 65.7754 39.3127 65.7754C40.0902 65.7754 40.8265 65.4739 41.3948 64.9205L44.0489 62.3368L44.0595 70.122C43.2007 69.9928 42.3319 69.925 41.4591 69.925H39.9937V69.3944C39.9937 67.613 38.5911 66.1636 36.8671 66.1636H34.1266C32.4026 66.1635 31 67.6127 31 69.3943V83.2617C31 83.7504 31.3834 84.1466 31.8564 84.1466C32.3294 84.1466 32.7128 83.7504 32.7128 83.2617V69.3943C32.7128 68.5888 33.347 67.9334 34.1266 67.9334H36.867C37.6465 67.9334 38.2807 68.5888 38.2807 69.3943V70.8099V88.9492V90.3509C38.2807 91.1564 37.6465 91.8118 36.867 91.8118H34.1266C33.347 91.8118 32.7128 91.1564 32.7128 90.3509V88.8023C32.7128 88.3136 32.3294 87.9174 31.8564 87.9174C31.3834 87.9174 31 88.3136 31 88.8023V90.3509C31 92.1323 32.4026 93.5817 34.1266 93.5817H36.867C38.5909 93.5817 39.9936 92.1324 39.9936 90.3509V90.2306L52.5354 95.1383C52.5586 95.1474 52.5822 95.1554 52.6061 95.1623C53.1514 95.3214 53.6964 95.4012 54.2345 95.4012C54.5256 95.4012 54.8147 95.3778 55.1009 95.3311L73.5323 92.5857C73.5366 92.5851 73.5408 92.5843 73.5452 92.5836C75.1122 92.3251 76.5905 91.6405 77.8202 90.6042C77.8308 90.5952 77.8414 90.5859 77.8516 90.5764L89.7591 79.5098C91.1458 78.2377 91.4046 76.0839 90.3616 74.4997ZM50.1059 45.3123L50.1099 47.8057L45.9014 51.9023L45.891 45.3183L50.1059 45.3123ZM60.7821 46.0479L75.8452 60.629L75.8713 79.9547L73.4466 81.6316L70.8789 81.4828L70.8111 80.7781C70.5721 78.2959 68.7988 76.2992 66.454 75.8227L66.4386 64.3254C66.4374 63.4431 65.7422 62.7261 64.8885 62.7261C64.8878 62.7261 64.8872 62.7261 64.8864 62.7261L56.7238 62.738C56.3098 62.7386 55.9207 62.9057 55.6285 63.2087C55.3361 63.5115 55.1754 63.914 55.176 64.3418L55.1896 74.366C53.5728 73.9841 52.0289 73.3533 50.5855 72.4808C50.4054 72.372 50.2236 72.2669 50.0402 72.1647C49.9687 72.1248 49.896 72.0874 49.8239 72.0485C49.7124 71.9883 49.6011 71.9278 49.4883 71.87C49.3986 71.824 49.3077 71.7804 49.2173 71.736C49.1213 71.6889 49.0254 71.6413 48.9288 71.5959C48.8303 71.5497 48.7311 71.5058 48.6319 71.4615C48.5413 71.421 48.4507 71.3803 48.3596 71.3415C48.2576 71.298 48.1551 71.2562 48.0524 71.2147C47.9614 71.1779 47.8702 71.1413 47.7787 71.1059C47.6771 71.0667 47.575 71.0288 47.4727 70.9916C47.3767 70.9566 47.2806 70.9225 47.1841 70.8892C47.0861 70.8554 46.9879 70.8223 46.8892 70.7902C46.7841 70.756 46.6785 70.7233 46.5728 70.6909C46.482 70.6633 46.3913 70.6357 46.3 70.6096C46.1808 70.5753 46.0611 70.5432 45.9412 70.5115C45.885 70.4966 45.8293 70.4798 45.7728 70.4653L45.7595 60.6715L60.7821 46.0479ZM64.741 75.6012L57.5779 74.749L56.903 74.6688L56.8892 64.5077L64.726 64.4963L64.741 75.6012ZM88.6179 78.1903L76.7221 89.2459C75.7308 90.0765 74.5417 90.6259 73.2814 90.8349L54.858 93.5791C54.8541 93.5797 54.8504 93.5803 54.8465 93.5809L54.8337 93.583C54.2755 93.6743 53.6943 93.6358 53.1059 93.4689L39.9937 88.3379V71.6948H41.4591C42.7066 71.6948 43.9456 71.8436 45.1521 72.1327C45.197 72.1435 45.2418 72.1545 45.2866 72.1656C45.4348 72.2026 45.5827 72.2406 45.7299 72.2818C45.7428 72.2854 45.7555 72.2893 45.7684 72.2929C45.916 72.3345 46.0629 72.3785 46.2094 72.4244C46.2357 72.4326 46.262 72.4407 46.2882 72.4491C46.444 72.4989 46.5992 72.5508 46.7535 72.6053C46.7695 72.611 46.7853 72.6168 46.8012 72.6225C47.1227 72.7372 47.4409 72.8623 47.7552 72.9977C47.7723 73.005 47.7895 73.0124 47.8066 73.0199C47.9632 73.088 48.119 73.1583 48.2737 73.2315C48.2778 73.2334 48.282 73.2355 48.2861 73.2375C48.4356 73.3085 48.5841 73.3821 48.7316 73.4578C48.749 73.4667 48.7664 73.4754 48.7838 73.4843C48.9279 73.5588 49.0709 73.6359 49.213 73.7149C49.2399 73.7298 49.2666 73.745 49.2934 73.7601C49.4369 73.8408 49.5795 73.9232 49.7207 74.0085C51.7587 75.2404 53.9773 76.0383 56.315 76.3802C56.3223 76.3813 56.3296 76.3822 56.337 76.3831L65.9324 77.5246C65.9855 77.5325 66.0382 77.5416 66.0906 77.5518C67.5032 77.8259 68.6181 78.9045 68.9911 80.3091C69.0464 80.5171 69.0854 80.7324 69.1067 80.9532L69.1448 81.3491L51.1612 79.721C50.6903 79.6785 50.2745 80.0385 50.2333 80.5253C50.1919 81.0122 50.5405 81.4415 51.0116 81.4842L70.0244 83.2055C70.0289 83.2059 70.0334 83.2057 70.0378 83.2061C70.0423 83.2065 70.0466 83.2072 70.0512 83.2076L73.6368 83.4155C73.6529 83.4164 73.6688 83.4168 73.6847 83.4168C73.7017 83.4168 73.7185 83.414 73.7354 83.4129C73.7545 83.4117 73.7736 83.411 73.7925 83.4086C73.8181 83.4052 73.843 83.3995 73.8681 83.3938C73.8861 83.3897 73.9041 83.3867 73.9217 83.3813C73.9491 83.3732 73.9755 83.3622 74.0021 83.3512C74.0164 83.3452 74.0311 83.3408 74.0452 83.334C74.0852 83.3148 74.1241 83.2928 74.1611 83.2671L77.2047 81.1624C77.2048 81.1623 77.2049 81.1622 77.205 81.162L86.1936 74.9461C87.0979 74.3179 88.3323 74.5644 88.9454 75.4953C89.5057 76.3461 89.3666 77.5032 88.6179 78.1903Z" fill="#31AFB4"/>
<path fill-rule="evenodd" clip-rule="evenodd" d="M53.0698 157.42L58.1509 164.745L63.0243 157.28C63.3423 156.793 63.779 156.13 64.3205 155.308L64.3234 155.303C68.798 148.511 80.42 130.871 91.4435 111.634C97.621 100.855 103.68 89.4553 108.212 79.092C112.631 68.9851 116 58.996 116 51.3668C116 47.8822 115.617 44.4958 114.888 41.234L109.21 43.4471C109.729 46.0188 110 48.6653 110 51.3668C110 73.515 74.03 129.561 61.5609 148.583C60.6915 149.91 59.9364 151.056 59.3157 151.998L59.3134 152.002C58.7666 152.832 58.3242 153.503 58 154C57.2026 152.85 55.9508 151.014 54.3544 148.623C41.4453 129.286 6 73.6648 6 51.3668C6 26.3114 29.2812 6 58 6C75.7011 6 91.3365 13.7163 100.728 25.5037L106.572 23.2258C96.0788 9.07941 77.9522 0 58 0C26.7626 0 0 22.2549 0 51.3668C0 58.972 3.27057 68.8607 7.59753 78.8827C12.0297 89.1483 17.9695 100.429 24.07 111.133C36.2765 132.55 49.3793 152.099 53.0698 157.42Z" fill="#006BC6"/>
</svg>
